<?xml version="1.0" encoding="UTF-8" standalone="no"?>
<!DOCTYPE svg PUBLIC "-//W3C//DTD SVG 1.1//EN"
 "http://www.w3.org/Graphics/SVG/1.1/DTD/svg11.dtd">
<!-- Generated by graphviz version 2.40.1 (20161225.0304)
 -->
<!-- Title: G Pages: 1 -->
<svg width="284pt" height="219pt"
 viewBox="0.00 0.00 284.24 219.00" xmlns="http://www.w3.org/2000/svg" xmlns:xlink="http://www.w3.org/1999/xlink">
<g id="graph0" class="graph" transform="scale(1 1) rotate(0) translate(4 215)">
<title>G</title>
<polygon fill="#ffffff" stroke="transparent" points="-4,4 -4,-215 280.2437,-215 280.2437,4 -4,4"/>
<g id="clust1" class="cluster">
<title>cluster_Global</title>
<path fill="none" stroke="#c0c0c0" d="M156.834,-8C156.834,-8 256.2437,-8 256.2437,-8 262.2437,-8 268.2437,-14 268.2437,-20 268.2437,-20 268.2437,-191 268.2437,-191 268.2437,-197 262.2437,-203 256.2437,-203 256.2437,-203 156.834,-203 156.834,-203 150.834,-203 144.834,-197 144.834,-191 144.834,-191 144.834,-20 144.834,-20 144.834,-14 150.834,-8 156.834,-8"/>
<text text-anchor="middle" x="206.5388" y="-190.2" font-family="Times,serif" font-size="11.00" fill="#c0c0c0">Global</text>
</g>
<g id="clust2" class="cluster">
<title>cluster_\HiDAl</title>
<path fill="none" stroke="#c0c0c0" d="M164.834,-16C164.834,-16 248.2437,-16 248.2437,-16 254.2437,-16 260.2437,-22 260.2437,-28 260.2437,-28 260.2437,-164 260.2437,-164 260.2437,-170 254.2437,-176 248.2437,-176 248.2437,-176 164.834,-176 164.834,-176 158.834,-176 152.834,-170 152.834,-164 152.834,-164 152.834,-28 152.834,-28 152.834,-22 158.834,-16 164.834,-16"/>
<text text-anchor="middle" x="206.5388" y="-163.2" font-family="Times,serif" font-size="11.00" fill="#c0c0c0">HiDAl</text>
</g>
<g id="clust3" class="cluster">
<title>cluster_\HiDAl\TimeIt</title>
<path fill="none" stroke="#c0c0c0" d="M172.834,-24C172.834,-24 240.2437,-24 240.2437,-24 246.2437,-24 252.2437,-30 252.2437,-36 252.2437,-36 252.2437,-137 252.2437,-137 252.2437,-143 246.2437,-149 240.2437,-149 240.2437,-149 172.834,-149 172.834,-149 166.834,-149 160.834,-143 160.834,-137 160.834,-137 160.834,-36 160.834,-36 160.834,-30 166.834,-24 172.834,-24"/>
<text text-anchor="middle" x="206.5388" y="-136.2" font-family="Times,serif" font-size="11.00" fill="#c0c0c0">TimeIt</text>
</g>
<!-- \\HiDAl\\TimeIt\\Exception -->
<g id="node1" class="node">
<title>\\HiDAl\\TimeIt\\Exception</title>
<polygon fill="none" stroke="#000000" points="244.4496,-122 168.628,-122 168.628,-86 244.4496,-86 244.4496,-122"/>
<text text-anchor="middle" x="206.5388" y="-100.7" font-family="Courier,monospace" font-size="11.00" fill="#000000">Exception</text>
</g>
<!-- \\Exception -->
<g id="node3" class="node">
<title>\\Exception</title>
<ellipse fill="none" stroke="#000000" cx="48.417" cy="-104" rx="48.3341" ry="18"/>
<text text-anchor="middle" x="48.417" y="-99.8" font-family="Times,serif" font-size="14.00" fill="#c0c0c0">\Exception</text>
</g>
<!-- \\HiDAl\\TimeIt\\Exception&#45;&gt;\\Exception -->
<g id="edge1" class="edge">
<title>\\HiDAl\\TimeIt\\Exception&#45;&gt;\\Exception</title>
<path fill="none" stroke="#000000" d="M168.6647,-104C150.2971,-104 127.8147,-104 107.2806,-104"/>
<polygon fill="none" stroke="#000000" points="107.069,-100.5001 97.0689,-104 107.0689,-107.5001 107.069,-100.5001"/>
</g>
<!-- \\HiDAl\\TimeIt\\TimeIt -->
<g id="node2" class="node">
<title>\\HiDAl\\TimeIt\\TimeIt</title>
<polygon fill="none" stroke="#000000" points="234.1466,-68 178.931,-68 178.931,-32 234.1466,-32 234.1466,-68"/>
<text text-anchor="middle" x="206.5388" y="-46.7" font-family="Courier,monospace" font-size="11.00" fill="#000000">TimeIt</text>
</g>
</g>
</svg>
